<?xml version="1.0" encoding="UTF-8"?>
<svg id="Layer_2" data-name="Layer 2" xmlns="http://www.w3.org/2000/svg" viewBox="0 0 112.7 102.68">
  <defs>
    <style>
      .cls-1, .cls-2 {
        fill: none;
      }

      .cls-1, .cls-2, .cls-3, .cls-4 {
        stroke-miterlimit: 10;
      }

      .cls-1, .cls-4 {
        stroke: #231f20;
      }

      .cls-2, .cls-3 {
        stroke: #a7a9ac;
      }

      .cls-3 {
        fill: #fff;
      }

      .cls-5 {
        font-family: Helvetica-Bold, Helvetica;
        font-weight: 700;
      }

      .cls-5, .cls-6 {
        font-size: 12px;
      }

      .cls-5, .cls-6, .cls-7, .cls-4 {
        fill: #231f20;
      }

      .cls-6, .cls-7 {
        font-family: Helvetica, Helvetica;
      }

      .cls-7 {
        font-size: 10px;
      }
    </style>
  </defs>
  <g id="Layer_1-2" data-name="Layer 1">
    <text class="cls-6" transform="translate(8.81 10.3)"><tspan x="0" y="0">Cell-type taxonomy</tspan></text>
    <g>
      <g>
        <g>
          <path class="cls-2" d="M101.86,77.12c0,8.31-8.31,8.31-8.31,16.61"/>
          <path class="cls-2" d="M101.86,77.14c0,8.31,8.27,8.29,8.27,16.59"/>
        </g>
        <circle class="cls-3" cx="110.13" cy="95.8" r="2.07"/>
        <circle class="cls-3" cx="93.55" cy="95.11" r="1.38"/>
        <g>
          <path class="cls-2" d="M93.57,56.37c0,8.31-8.31,8.31-8.31,16.61"/>
          <path class="cls-2" d="M93.57,56.39c0,8.31,8.27,8.29,8.27,16.59"/>
        </g>
        <circle class="cls-2" cx="101.84" cy="75.05" r="2.07"/>
        <circle class="cls-2" cx="85.26" cy="74.36" r="1.38"/>
        <g>
          <path class="cls-1" d="M85.28,35.62c0,8.31-8.31,8.31-8.31,16.61"/>
          <path class="cls-1" d="M85.28,35.64c0,8.31,8.27,8.29,8.27,16.59"/>
        </g>
        <circle class="cls-4" cx="93.55" cy="54.3" r="2.07"/>
        <circle class="cls-4" cx="76.97" cy="53.61" r="1.38"/>
        <g>
          <path class="cls-2" d="M76.99,14.87c0,8.31-8.31,8.31-8.31,16.61"/>
          <path class="cls-2" d="M76.99,14.89c0,8.31,8.27,8.29,8.27,16.59"/>
        </g>
        <circle class="cls-3" cx="85.26" cy="33.55" r="2.07"/>
        <circle class="cls-3" cx="68.68" cy="32.86" r="1.38"/>
      </g>
      <text class="cls-7" transform="translate(0 35.62)"><tspan x="0" y="0">neighborhood</tspan></text>
      <text class="cls-5" transform="translate(15.94 56.39)"><tspan x="0" y="0">subclass</tspan></text>
      <text class="cls-7" transform="translate(31.67 77.14)"><tspan x="0" y="0">supertype</tspan></text>
      <text class="cls-7" transform="translate(54.43 97.87)"><tspan x="0" y="0">cluster</tspan></text>
    </g>
  </g>
</svg>