<?xml version="1.0" encoding="UTF-8"?>
<svg id="Layer_1" xmlns="http://www.w3.org/2000/svg" version="1.1" viewBox="0 0 777.6 259.2">
  <!-- Generator: Adobe Illustrator 29.6.1, SVG Export Plug-In . SVG Version: 2.1.1 Build 9)  -->
  <defs>
    <style>
      .st0 {
        font-family: Arial-BoldMT, Arial;
        font-weight: 700;
      }

      .st0, .st1, .st2, .st3, .st4 {
        isolation: isolate;
      }

      .st0, .st3 {
        font-size: 18px;
      }

      .st5 {
        fill: #f1d0cd;
      }

      .st5, .st6, .st7, .st8, .st9, .st10, .st11, .st12, .st13, .st14, .st15, .st16 {
        stroke: #000;
        stroke-linecap: round;
        stroke-linejoin: round;
      }

      .st5, .st7, .st9, .st11, .st12, .st13, .st16 {
        stroke-width: .4px;
      }

      .st6 {
        fill: #ffc49b;
      }

      .st6, .st8, .st10, .st14, .st15 {
        stroke-width: .8px;
      }

      .st7 {
        fill: #eff3f6;
      }

      .st1 {
        font-size: 8px;
      }

      .st1, .st2, .st3 {
        font-family: ArialMT, Arial;
      }

      .st8 {
        fill: #ffefd3;
      }

      .st9 {
        fill: #f4e3e1;
      }

      .st10 {
        fill: #c4d6e5;
      }

      .st11 {
        fill: #f9f9f9;
      }

      .st12 {
        fill: #f7f3f3;
      }

      .st2 {
        font-size: 12px;
      }

      .st13 {
        fill: #f2d6d3;
      }

      .st14 {
        fill: none;
      }

      .st15 {
        fill: #adb6c4;
      }

      .st16 {
        fill: #f7f8f8;
      }

      .st4 {
        font-family: Arial-ItalicMT, Arial;
        font-size: 16px;
        font-style: italic;
      }
    </style>
  </defs>
  <rect class="st16" x="312.3" y="76" width="42.5" height="42.5"/>
  <rect class="st13" x="312.3" y="118.5" width="42.5" height="42.5"/>
  <rect class="st12" x="354.8" y="76" width="42.5" height="42.5"/>
  <rect class="st9" x="354.8" y="118.5" width="42.5" height="42.5"/>
  <rect class="st5" x="397.3" y="76" width="42.5" height="42.5"/>
  <rect class="st7" x="397.3" y="118.5" width="42.5" height="42.5"/>
  <rect class="st11" x="439.9" y="76" width="42.5" height="42.5"/>
  <rect class="st11" x="439.9" y="118.5" width="42.5" height="42.5"/>
  <text class="st0" transform="translate(383.8 66.6)"><tspan x="0" y="0">DG</tspan></text>
  <text class="st4" transform="translate(264.1 103)"><tspan x="0" y="0">Kcnn2</tspan></text>
  <text class="st4" transform="translate(249.9 145.5)"><tspan x="0" y="0">Napepld</tspan></text>
  <text class="st3" transform="translate(315.5 195.6) rotate(-45)"><tspan x="0" y="0">ZT0</tspan></text>
  <text class="st3" transform="translate(358 195.6) rotate(-45)"><tspan x="0" y="0">ZT4</tspan></text>
  <text class="st3" transform="translate(393.5 202.7) rotate(-45)"><tspan x="0" y="0">ZT12</tspan></text>
  <text class="st3" transform="translate(436 202.7) rotate(-45)"><tspan x="0" y="0">ZT16</tspan></text>
  <rect class="st6" x="488" y="78.1" width="38.2" height="6.4"/>
  <rect class="st8" x="488" y="88.7" width="31.5" height="6.4"/>
  <rect class="st10" x="488" y="99.4" width="24.7" height="6.4"/>
  <rect class="st15" x="488" y="110" width="40.5" height="6.4"/>
  <rect class="st6" x="488" y="120.6" width="15.7" height="6.4"/>
  <rect class="st8" x="488" y="131.2" width="17" height="6.4"/>
  <rect class="st10" x="488" y="141.9" width="22.8" height="6.4"/>
  <rect class="st15" x="488" y="152.5" width="20.8" height="6.4"/>
  <line class="st14" x1="488" y1="161" x2="530.6" y2="161"/>
  <line class="st14" x1="488" y1="163.9" x2="488" y2="161"/>
  <line class="st14" x1="498.2" y1="163.9" x2="498.2" y2="161"/>
  <line class="st14" x1="508.4" y1="163.9" x2="508.4" y2="161"/>
  <line class="st14" x1="518.5" y1="163.9" x2="518.5" y2="161"/>
  <line class="st14" x1="528.7" y1="163.9" x2="528.7" y2="161"/>
  <text class="st1" transform="translate(490.9 171.1) rotate(-90)"><tspan x="0" y="0">0</tspan></text>
  <text class="st1" transform="translate(501.1 180) rotate(-90)"><tspan x="0" y="0">100</tspan></text>
  <text class="st1" transform="translate(511.2 180) rotate(-90)"><tspan x="0" y="0">200</tspan></text>
  <text class="st1" transform="translate(521.4 180) rotate(-90)"><tspan x="0" y="0">300</tspan></text>
  <text class="st1" transform="translate(531.5 180) rotate(-90)"><tspan x="0" y="0">400</tspan></text>
  <rect class="st14" x="488" y="76" width="42.5" height="85"/>
  <text class="st2" transform="translate(479.6 191.5)"><tspan x="0" y="0">Expression</tspan></text>
</svg>